<?xml version="1.0" encoding="UTF-8"?>
<svg version="1.1" xmlns="http://www.w3.org/2000/svg" width="512" height="512">
<path d="M0 0 C6.44907173 3.49362406 12.04662959 8.34744882 17.625 13.0625 C20.39931372 15.39704479 23.18981894 17.70877938 26 20 C26.62874023 20.53351074 27.25748047 21.06702148 27.90527344 21.61669922 C29.87669679 23.2600359 29.87669679 23.2600359 33 25 C38.07782418 24.42854069 42.34225463 19.60384487 46.125 16.375 C66.12693451 -0.41268366 66.12693451 -0.41268366 77.01953125 -0.26953125 C81.11725472 0.10103614 83.05668064 1.12846891 86 4 C90.15915394 9.6996942 92.85018781 15.94477817 95.46875 22.45703125 C95.87154175 23.44064133 96.2743335 24.4242514 96.68933105 25.43766785 C97.96650258 28.55983001 99.23371068 31.6859104 100.5 34.8125 C101.76810363 37.92760309 103.03833841 41.04181813 104.31066895 44.15519714 C105.09827808 46.08413651 105.88322545 48.01416586 106.66491699 49.94551086 C107.39170602 51.73173791 108.12697185 53.51454265 108.8712616 55.29354858 C109.66840974 57.20492391 110.4416751 59.1263438 111.19770813 61.05435181 C111.60659775 62.04567108 112.01548737 63.03699036 112.43676758 64.05834961 C112.79692459 64.95903671 113.1570816 65.85972382 113.52815247 66.78770447 C115.47070776 69.70750852 117.12936578 70.10142475 120.48046875 70.921875 C122.71014177 71.24282552 124.94701405 71.51617589 127.1875 71.75 C129.63282756 72.10430681 132.07683392 72.46783575 134.51953125 72.83984375 C136.38665771 73.11223877 136.38665771 73.11223877 138.29150391 73.39013672 C167.39394552 78.17604186 204.12637231 89.38934241 222.66015625 113.859375 C226.86076154 120.57054613 226.68453272 127.27706675 226 135 C223.03453084 146.41142564 211.79949682 154.34290285 202.24755859 160.04638672 C171.73730625 177.88012132 135.66616025 184.57234191 101 189 C99.79601562 189.16371094 98.59203125 189.32742187 97.3515625 189.49609375 C55.23601627 195.02318821 9.06489866 194.68346215 -33 189 C-34.7013208 188.7831958 -34.7013208 188.7831958 -36.43701172 188.56201172 C-67.33980019 184.55781915 -98.97592512 178.0392585 -127 164 C-127.64291992 163.67918457 -128.28583984 163.35836914 -128.94824219 163.02783203 C-141.07629868 156.85086793 -153.51203546 148.46389361 -158 135 C-158.88571885 123.5727748 -157.58967717 117.14184736 -150.375 108.4375 C-130.48959189 87.17065586 -94.42653128 76.708681 -66.546875 72.90625 C-65.32677734 72.72916504 -64.10667969 72.55208008 -62.84960938 72.36962891 C-60.50864045 72.04795209 -58.16002578 71.77654374 -55.80664062 71.56396484 C-51.29821109 70.94006693 -48.12617058 70.44714958 -45.24658203 66.74682617 C-43.91849329 63.95848341 -42.81861489 61.15703295 -41.80615234 58.24047852 C-40.54147611 54.72565907 -39.07586479 51.29743116 -37.63720703 47.85095215 C-36.38189994 44.83922947 -35.14513202 41.82053328 -33.9140625 38.79882812 C-33.49672852 37.77474854 -33.07939453 36.75066895 -32.64941406 35.69555664 C-31.79492211 33.59484874 -30.94174648 31.49360495 -30.08984375 29.3918457 C-28.84435037 26.32262816 -27.59070353 23.25684234 -26.3359375 20.19140625 C-25.95980316 19.25696182 -25.58366882 18.3225174 -25.19613647 17.35975647 C-20.36618261 5.59649478 -14.19167 -3.13125815 0 0 Z "  transform="translate(222,32)"/>
<path d="M0 0 C2.12037947 0.70918119 4.24120679 1.41702459 6.36245728 2.12359619 C10.78892496 3.60220071 15.21112093 5.09273816 19.63037109 6.59277344 C25.28660507 8.51224986 30.95050169 10.40777558 36.61748314 12.29525375 C40.98998317 13.75329813 45.35929083 15.22071049 49.72758865 16.69129181 C51.81521409 17.39351529 53.90356492 18.09358618 55.99265671 18.79143524 C58.91018856 19.76829477 61.8234623 20.75691905 64.73583984 21.74902344 C66.0217099 22.17628723 66.0217099 22.17628723 67.33355713 22.61218262 C74.77006736 25.17044341 80.1602137 27.97723182 84.0390625 35.140625 C85.1535927 38.13232088 85.98766296 41.1711719 86.80053711 44.25683594 C87.04668259 45.15538803 87.29282806 46.05394012 87.5464325 46.97972107 C88.3551743 49.94209235 89.14830194 52.9084076 89.94140625 55.875 C90.50566337 57.95349144 91.07091121 60.03171416 91.63710022 62.10968018 C93.12605382 67.58446903 94.60188742 73.06271032 96.07489014 78.54180908 C97.55993391 84.05726949 99.05664116 89.56955979 100.55273438 95.08203125 C102.24259895 101.31065733 103.93135447 107.53956288 105.61106873 113.77093506 C105.86768563 114.72247593 106.12430254 115.6740168 106.38869572 116.65439224 C106.88834379 118.50779136 107.38747019 120.3613312 107.88603115 122.21502304 C109.07245548 126.61439397 110.27818418 131.00680053 111.52566528 135.38928223 C111.76017426 136.21659473 111.99468325 137.04390724 112.23629856 137.89628983 C112.675798 139.44098774 113.11963139 140.98446203 113.56868649 142.52640915 C114.53046327 145.90939664 115.0390625 148.58774591 115.0390625 152.140625 C115.6990625 152.140625 116.3590625 152.140625 117.0390625 152.140625 C117.16692139 150.60825195 117.16692139 150.60825195 117.29736328 149.04492188 C118.13212711 142.43117681 120.11260986 136.07579703 121.90625 129.671875 C122.30161823 128.24404169 122.69646862 126.8160649 123.09083557 125.38795471 C124.14196625 121.5868898 125.19985621 117.78773986 126.25947189 113.98903275 C127.35195501 110.06964284 128.4396686 106.14893018 129.52758789 102.22827148 C129.96228653 100.66178644 130.39699416 99.09530389 130.83171082 97.52882385 C131.04594381 96.75681704 131.26017681 95.98481022 131.48090172 95.18940926 C132.12782304 92.85937018 132.77561277 90.52957387 133.42353821 88.19981384 C135.85758631 79.44189698 138.2567472 70.67580277 140.60546875 61.89453125 C141.10746166 60.02731068 141.60957139 58.16012152 142.11181641 56.29296875 C142.78748336 53.78019003 143.45984733 51.26682238 144.12030029 48.75 C144.70729577 46.51422337 145.30725132 44.28231039 145.91015625 42.05078125 C146.22911865 40.84558838 146.54808105 39.64039551 146.87670898 38.39868164 C149.17095392 31.96795308 152.21729193 28.58470343 158.0390625 25.140625 C161.08686868 23.84465545 164.2004725 22.79297246 167.34228516 21.74902344 C168.26022858 21.43632507 169.178172 21.12362671 170.12393188 20.80145264 C173.14720012 19.77476326 176.17477773 18.76160194 179.203125 17.75 C181.31823413 17.03853171 183.43325351 16.3267966 185.54818726 15.61480713 C189.9793844 14.12577976 194.41299089 12.64419055 198.84814453 11.16699219 C204.50975366 9.27999209 210.16270942 7.36839084 215.81382179 5.45022202 C220.17995794 3.97252055 224.55150309 2.51137014 228.92469406 1.05469513 C231.01006713 0.35722217 233.09351334 -0.34604132 235.1748848 -1.05536652 C260.20504864 -9.56802429 260.20504864 -9.56802429 269.5390625 -5.234375 C274.353438 -0.66071827 276.29062486 2.4493712 276.5390625 9.140625 C276.60494435 15.46528241 273.94001704 19.03784609 269.77374268 23.64645386 C268.53464142 24.87889328 268.53464142 24.87889328 267.27050781 26.13623047 C266.81150589 26.59552444 266.35250397 27.05481842 265.8795929 27.5280304 C264.38015508 29.0260888 262.87378799 30.51696088 261.3671875 32.0078125 C260.31871522 33.0525497 259.27068729 34.097733 258.2230835 35.14334106 C255.47879648 37.88003058 252.72855472 40.61065757 249.97698975 43.34002686 C247.16460189 46.13187222 244.3579419 48.92946305 241.55078125 51.7265625 C236.05243595 57.20352648 230.54778126 62.67409262 225.0390625 68.140625 C225.62677429 68.19204651 226.21448608 68.24346802 226.82000732 68.29644775 C229.53409342 68.53664474 232.24749334 68.78391071 234.9609375 69.03125 C235.88503418 69.11197754 236.80913086 69.19270508 237.76123047 69.27587891 C259.28059018 71.25966536 289.36165934 78.04957004 305.0390625 94.140625 C308.9613494 99.54751582 308.81927385 104.67977369 308.0390625 111.140625 C305.39594294 116.8334979 301.24698515 119.88467543 295.51855469 122.12744141 C292.43146186 123.18636774 289.33197216 124.19920818 286.2265625 125.203125 C272.76896573 129.70890249 259.91741246 135.20134493 247.0390625 141.140625 C245.73001953 141.73641357 245.73001953 141.73641357 244.39453125 142.34423828 C210.38195978 157.83635628 175.1956262 178.4915505 149.33203125 205.953125 C148.0390625 207.140625 148.0390625 207.140625 146.0390625 207.140625 C145.80574219 207.70265625 145.57242188 208.2646875 145.33203125 208.84375 C143.71969174 211.70796642 141.7197063 213.61314521 139.3515625 215.890625 C135.55849102 219.59612196 131.99726029 223.37183921 128.609375 227.44921875 C124.87311476 231.47359856 121.75827836 233.02788953 116.2265625 233.390625 C110.37750651 233.27321694 106.72009019 230.96182528 102.6015625 226.953125 C100.29137887 224.51907451 98.06669463 222.03179197 95.8828125 219.484375 C85.29365199 207.35588892 73.75416811 195.88299561 60.73388672 186.38232422 C58.97651086 185.09479705 57.2434884 183.77875733 55.51171875 182.45703125 C41.50140168 171.85554586 26.52641834 162.63224743 11.09326172 154.25585938 C9.69393321 153.49615737 8.29721427 152.73163347 6.90283203 151.96289062 C-12.75991709 141.14031832 -33.20780275 132.48081344 -54.39453125 125.11328125 C-58.10882017 123.80800809 -61.81299227 122.48350256 -65.4921875 121.08203125 C-66.28044922 120.78369385 -67.06871094 120.48535645 -67.88085938 120.17797852 C-71.82142797 118.2127818 -74.00890709 115.04468583 -75.9609375 111.140625 C-76.45446795 105.736062 -76.66927696 100.80368287 -74.5234375 95.765625 C-56.44999966 77.2513716 -24.55707677 70.33516856 0.32885742 68.60668945 C1.58639328 68.5187764 2.84392914 68.43086334 4.13957214 68.34028625 C5.57481987 68.24145393 5.57481987 68.24145393 7.0390625 68.140625 C6.42962799 67.53563171 5.82019348 66.93063843 5.19229126 66.30731201 C-0.55139147 60.60371067 -6.29024533 54.89530403 -12.02373314 49.1814537 C-14.9715125 46.24410955 -17.92112253 43.30865407 -20.875 40.37744141 C-23.72581396 37.54836498 -26.57170835 34.71442476 -29.41426468 31.87705231 C-30.49936942 30.79564167 -31.5862324 29.7159923 -32.67487717 28.63814545 C-34.19989655 27.12765292 -35.71853261 25.61100731 -37.23583984 24.09277344 C-38.10187836 23.23117615 -38.96791687 22.36957886 -39.86019897 21.48187256 C-44.27921902 16.55692842 -44.3991826 12.51484215 -44.2734375 6.0546875 C-43.70491594 0.75322399 -41.18227966 -1.69909995 -37.4609375 -5.234375 C-25.44979807 -10.81097545 -11.61145575 -3.95714954 0 0 Z "  transform="translate(139.9609375,246.859375)"/>
</svg>
