<?xml version="1.0" encoding="UTF-8"?>
<svg version="1.1" xmlns="http://www.w3.org/2000/svg" width="512" height="512">
<path d="M0 0 C0.97356445 0.33572021 0.97356445 0.33572021 1.96679688 0.67822266 C24.68753534 8.65909065 45.53177497 21.4986509 63 38 C64.3087602 39.10859687 65.62116359 40.21290974 66.9375 41.3125 C100.13161101 70.52331769 121.19133054 117.1491269 124 161 C125.94029848 214.58502115 111.80613967 262.44518023 76 303 C75.278125 303.84433594 74.55625 304.68867188 73.8125 305.55859375 C69.53855193 310.50869377 65.05092101 314.85275814 60 319 C59.46987305 319.4424707 58.93974609 319.88494141 58.39355469 320.34082031 C50.01104406 327.32240558 41.54666394 333.66243248 32 339 C31.30422852 339.39429199 30.60845703 339.78858398 29.89160156 340.19482422 C12.46758838 349.99159428 -5.5255407 356.58058829 -25 361 C-25.68271973 361.16516113 -26.36543945 361.33032227 -27.06884766 361.50048828 C-51.8695372 367.31719136 -81.42400355 365.93073633 -106 360 C-106.90443848 359.78569336 -107.80887695 359.57138672 -108.74072266 359.35058594 C-121.45602995 356.24576415 -133.27308452 351.78172789 -145 346 C-145.72703125 345.64534668 -146.4540625 345.29069336 -147.203125 344.92529297 C-168.57724637 334.39455897 -188.73436786 319.35781775 -204 301 C-205.13888672 299.69289063 -205.13888672 299.69289063 -206.30078125 298.359375 C-234.72738779 265.2907876 -250.42690183 223.44552904 -250.31567383 179.89770508 C-250.31252524 177.3330582 -250.3360294 174.76958265 -250.36132812 172.20507812 C-250.41835408 157.36687009 -248.69820527 142.77212865 -244.75 128.4375 C-244.43639526 127.27963989 -244.43639526 127.27963989 -244.11645508 126.09838867 C-231.84025296 82.39688509 -203.23841283 43.46447562 -165 19 C-164.39414063 18.60603027 -163.78828125 18.21206055 -163.1640625 17.80615234 C-144.12049375 5.54928399 -123.11133571 -2.36067444 -101 -7 C-100.1759668 -7.17644043 -99.35193359 -7.35288086 -98.50292969 -7.53466797 C-66.22782662 -14.11357282 -30.88797295 -10.86101488 0 0 Z M-165 74 C-165.60070312 74.54785156 -166.20140625 75.09570312 -166.8203125 75.66015625 C-193.33124287 100.75306011 -207.21389104 138.89351398 -208.3515625 174.80126953 C-208.76988751 214.04538463 -193.05637403 249.33304429 -167 278 C-166.39800781 278.67417969 -165.79601562 279.34835937 -165.17578125 280.04296875 C-142.31473472 304.28604328 -106.53206582 320.14617292 -73.39070129 321.22851562 C-58.80224606 321.60578914 -44.18902723 321.80722934 -30 318 C-29.22333984 317.80132324 -28.44667969 317.60264648 -27.64648438 317.39794922 C3.50752052 309.29377998 31.35612645 291.70769403 51 266 C51.66644531 265.14921875 52.33289063 264.2984375 53.01953125 263.421875 C76.46447156 232.53189448 84.75042979 194.04045714 80.5390625 155.8203125 C79.95640614 151.81506902 79.0482705 147.90676194 78 144 C77.80132324 143.22333984 77.60264648 142.44667969 77.39794922 141.64648438 C71.67912455 119.66220856 61.86423344 100.24684281 47 83 C46.17886719 82.04480469 45.35773438 81.08960938 44.51171875 80.10546875 C18.0543732 49.96794781 -18.49583721 34.9816215 -58 32 C-98.05866263 29.43415102 -136.3779041 47.05856098 -165 74 Z "  transform="translate(250,11)"/>
<path d="M0 0 C3.0639755 1.35753612 5.05900402 2.85402946 7.3371582 5.30053711 C7.96914627 5.97140854 8.60113434 6.64227997 9.25227356 7.33348083 C9.9282811 8.0574556 10.60428864 8.78143036 11.30078125 9.52734375 C12.76728714 11.05816835 14.2354415 12.58741512 15.70507812 14.11523438 C18.00669731 16.51510681 20.29781564 18.92170312 22.56176758 21.35717773 C32.22202787 31.71780955 38.60973159 37.9329794 53 39 C59.86959728 40.9533668 64.65690668 45.31955146 69.72241211 50.11962891 C70.37403037 50.73287333 71.02564863 51.34611774 71.6970129 51.97794533 C79.75277299 59.59980311 87.59830598 67.43406053 95.44140625 75.2734375 C97.06462313 76.8934306 98.68791047 78.5133531 100.31126404 80.13320923 C103.68200638 83.49802025 107.05073388 86.86483338 110.41821289 90.23291016 C114.72004167 94.53484127 119.02875736 98.82980429 123.33918858 103.12311363 C126.68070719 106.45349765 130.0176547 109.78843306 133.35334587 113.12465286 C134.94046374 114.71059671 136.52918943 116.29493336 138.1196003 117.87757492 C140.33917623 120.08730288 142.55226765 122.30333742 144.76391602 124.52099609 C145.41073334 125.16219391 146.05755066 125.80339172 146.72396851 126.46401978 C152.07957177 131.85649657 157.37130642 137.64967365 160.3125 144.75 C160.61800781 145.46671875 160.92351562 146.1834375 161.23828125 146.921875 C164.78810027 156.60650945 164.15738419 168.33772681 160.12890625 177.7421875 C154.5125834 188.97483319 145.96368995 195.60328752 134.109375 199.64453125 C123.73015586 201.39362188 112.21260753 200.90420513 103.31324291 194.85309124 C97.70872039 190.75384892 92.82031513 186.12894092 87.90942383 181.23168945 C87.03846573 180.37066116 86.16750763 179.50963287 85.27015686 178.62251282 C82.90269162 176.27909414 80.5398174 173.93125989 78.17988801 171.58026528 C76.70057176 170.10684752 75.22010424 168.6345959 73.73929405 167.16267967 C69.09216792 162.54282875 64.44901013 157.91904424 59.8116253 153.2894147 C54.48408487 147.97083701 49.14371562 142.66560151 43.7917822 137.37157279 C39.63651906 133.2596949 35.49300546 129.13621122 31.35804576 125.0039174 C28.89641441 122.54437005 26.43028989 120.0898009 23.95176125 117.64727211 C21.18507627 114.92000634 18.44296468 112.16879915 15.70239258 109.4152832 C14.89137085 108.62269104 14.08034912 107.83009888 13.24475098 107.01348877 C6.55653539 100.22628729 1.77524145 92.62527892 1.20556641 82.89160156 C0.22003169 75.88087559 -3.25074243 72.44723861 -8.2890625 67.734375 C-9.10748627 66.93010071 -9.92591003 66.12582642 -10.76913452 65.29718018 C-13.36506852 62.75681607 -15.99366474 60.25362393 -18.625 57.75 C-20.40072306 56.02448436 -22.17418643 54.29664005 -23.9453125 52.56640625 C-28.27110746 48.3503218 -32.62420885 44.16413827 -37 40 C-35.2976208 36.30704354 -33.50755375 34.60189738 -30.25 32.125 C-18.58344125 22.79786915 -8.72287342 12.09946958 0 0 Z "  transform="translate(349,311)"/>
<path d="M0 0 C3.1927769 2.70158045 3.89883745 4.54865937 4.8125 8.625 C4.50023333 15.01445654 -1.00382538 19.46121381 -5 24 C-19.82169668 42.54200208 -23.91414933 64.86901655 -22 88 C-21.25330557 93.53549471 -19.81554851 98.71407517 -18 104 C-17.63777344 105.0621875 -17.27554688 106.124375 -16.90234375 107.21875 C-13.06853994 117.30360341 -7.07511764 125.68481086 0 133.75 C4.61498092 139.29117086 4.61498092 139.29117086 4.875 143.375 C3.79057605 147.8676135 2.88188796 149.4648895 -1 152 C-4.26997388 152.99933438 -6.72308497 152.99057072 -10 152 C-27.34912819 140.00517172 -37.7112185 114.13869965 -41.54199219 94.17553711 C-43.8832599 77.94266445 -43.33317636 59.55372175 -38 44 C-37.78037598 43.35579102 -37.56075195 42.71158203 -37.33447266 42.04785156 C-31.84138451 26.3033314 -23.0126298 10.77248087 -10 0 C-6.16652698 -1.27782434 -3.91272241 -0.96101954 0 0 Z "  transform="translate(125,112)"/>
</svg>
