<?xml version="1.0" encoding="UTF-8"?>
<svg version="1.1" xmlns="http://www.w3.org/2000/svg" width="512" height="512">
<path d="M0 0 C0.80743652 0.20399414 1.61487305 0.40798828 2.44677734 0.61816406 C14.10104232 3.66650979 25.17760902 7.72112461 36 13 C36.63244629 13.30663574 37.26489258 13.61327148 37.91650391 13.92919922 C50.79278394 20.260666 62.29066754 28.12812419 72.78125 37.9375 C74.75737093 39.77445749 76.78954621 41.47811165 78.875 43.1875 C104.27426384 65.46306405 122.5589394 101.78456759 127 135 C127.03711658 136.99965556 127.04746437 139.0005633 127 141 C128.02738281 140.95359375 129.05476563 140.9071875 130.11328125 140.859375 C143.47321223 140.43409518 153.63349703 143.01333872 164 152 C173.17704743 161.77478615 177.57862144 172.71199588 177.2421875 186.11328125 C176.22451222 198.24331399 171.55237933 207.99651228 162.6875 216.375 C151.14370066 225.93930234 139.15843586 227.30372732 124.63517761 227.26069641 C123.1840307 227.26372056 121.73288539 227.26761137 120.28174287 227.27228898 C116.3118627 227.28254382 112.3420731 227.28039358 108.37218559 227.27610838 C104.08372079 227.27363657 99.79527753 227.28266101 95.50682068 227.29014587 C87.11188502 227.30288248 78.71698136 227.30468784 70.32203766 227.30234561 C63.49645505 227.30056104 56.67088213 227.30231507 49.84530067 227.30657005 C48.38693607 227.30746284 48.38693607 227.30746284 46.89910955 227.30837366 C44.92384813 227.30958544 42.94858671 227.31079957 40.97332529 227.31201603 C22.45706841 227.32288769 3.94082975 227.32073092 -14.57542815 227.31463119 C-31.50260497 227.30946302 -48.42972421 227.32071549 -65.35688964 227.33972941 C-82.75038883 227.35911689 -100.1438608 227.36736216 -117.53737086 227.36360615 C-127.29738712 227.36169541 -137.0573544 227.36416929 -146.81736183 227.37832069 C-155.12672348 227.3902471 -163.43600599 227.39162529 -171.74536876 227.37953053 C-175.98180181 227.37365054 -180.21809021 227.37251795 -184.45451355 227.38453293 C-188.33891248 227.39542114 -192.22304648 227.39225372 -196.10743316 227.37827124 C-197.50642615 227.37563236 -198.9054401 227.37796524 -200.30441246 227.38600711 C-215.04097155 227.46478331 -227.19185416 225.10169046 -238.2890625 214.89453125 C-247.43268594 205.22009821 -251.5454918 194.05138317 -251.25 180.828125 C-250.20688359 169.0278706 -244.86632259 157.91693414 -236 150 C-227.19011933 143.91099404 -219.27848282 140.62009099 -208.5625 140.875 C-207.83095703 140.88402344 -207.09941406 140.89304688 -206.34570312 140.90234375 C-204.56365702 140.92563847 -202.78178241 140.9614981 -201 141 C-200.98582031 140.42636719 -200.97164062 139.85273438 -200.95703125 139.26171875 C-198.83203659 101.41384092 -176.04506674 64.68656844 -149.125 39.25 C-127.11084724 19.77816409 -101.48841525 6.95706397 -73 0 C-72.30632324 -0.17934082 -71.61264648 -0.35868164 -70.89794922 -0.54345703 C-49.36884944 -5.93242135 -21.50771388 -5.45101761 0 0 Z "  transform="translate(293,51)"/>
<path d="M0 0 C0.82918269 0.10607144 0.82918269 0.10607144 1.67511654 0.21428573 C9.31236314 1.09310739 16.89544413 1.1402554 24.57446289 1.12698364 C26.03614624 1.12813754 27.4978293 1.12972687 28.95951176 1.13171089 C32.9537772 1.13586724 36.9480186 1.13383027 40.94228411 1.13072467 C45.25863332 1.1284557 49.5749785 1.13195763 53.8913269 1.13470459 C62.33825516 1.13914525 70.78517451 1.13819339 79.23210311 1.13529195 C86.09867536 1.13303123 92.96524511 1.1327283 99.83181763 1.13381577 C101.29917125 1.13404561 101.29917125 1.13404561 102.79616839 1.13428011 C104.78359373 1.13459984 106.77101908 1.13492405 108.75844443 1.1352527 C127.38337291 1.1381025 146.00829646 1.1348283 164.63322413 1.12945233 C180.60542012 1.12498475 196.57760883 1.12576082 212.54980469 1.13037109 C231.1092551 1.13572567 249.6687012 1.13782786 268.22815228 1.13475883 C270.20816231 1.13444029 272.18817234 1.13412592 274.16818237 1.13381577 C275.62938943 1.13358435 275.62938943 1.13358435 277.12011582 1.13334826 C283.97641005 1.13248576 290.83270155 1.13394025 297.68899536 1.13629532 C306.04740849 1.13910331 314.40581223 1.13833394 322.76422429 1.13301457 C327.02669876 1.13039108 331.28915759 1.12934959 335.55163193 1.13266373 C339.45739309 1.13565453 343.36312418 1.13398766 347.26888263 1.12868617 C348.67790411 1.12757385 350.08692815 1.12812673 351.49594796 1.13056196 C359.06199367 1.14263015 366.48968481 0.96074115 374 0 C374.09376066 7.88594137 374.16429127 15.77174583 374.20724869 23.65810871 C374.22789336 27.32232526 374.25577147 30.9861534 374.30175781 34.65014648 C374.69966782 67.23282427 369.91151201 95.50378254 348 121 C347.22462891 121.99193359 347.22462891 121.99193359 346.43359375 123.00390625 C335.86340725 136.11729552 320.16986995 145.66565192 304.5 151.3125 C303.8608667 151.54300049 303.2217334 151.77350098 302.56323242 152.01098633 C275.04549443 161.29954472 244.69182598 159.40112644 218.68896484 146.6484375 C206.83522122 140.50446875 197.05144127 132.80225206 188 123 C184.51446293 124.47705495 182.44390969 126.43374256 179.875 129.1875 C161.974586 147.34859964 135.87273455 157.06406877 110.63623047 157.38085938 C85.76000362 157.34145149 63.11450096 152.59622334 43 137 C42.45037598 136.5776709 41.90075195 136.1553418 41.33447266 135.72021484 C21.18238874 120.0264075 7.59412297 98.98407034 2 74 C1.82767853 73.24534958 1.65535706 72.49069916 1.47781372 71.71318054 C-0.14607515 63.8368421 -0.25922123 56.15941489 -0.1953125 48.14453125 C-0.19157238 46.74777939 -0.18873015 45.35102486 -0.18673706 43.95426941 C-0.17917908 40.31619751 -0.15960016 36.6782908 -0.1373291 33.0402832 C-0.11669966 29.31268547 -0.10769916 25.5850605 -0.09765625 21.85742188 C-0.07634502 14.57154009 -0.04230656 7.28579338 0 0 Z M68 67 C64.97443602 71.53834597 64.29932438 75.63144313 65 81 C66.88626741 86.34622079 69.97746415 89.33498098 75 92 C79.77803625 93.34444977 84.65385229 93.17951892 89.578125 93.203125 C90.50413513 93.20882507 91.43014526 93.21452515 92.38421631 93.22039795 C94.34093084 93.22982562 96.2976611 93.23637304 98.25439453 93.24023438 C101.22587268 93.24992135 104.19665325 93.28095842 107.16796875 93.3125 C109.07551676 93.31903284 110.98306968 93.3242822 112.890625 93.328125 C113.76906067 93.3404718 114.64749634 93.3528186 115.55255127 93.36553955 C121.76744181 93.34344256 128.78297113 92.86857066 133.628479 88.5479126 C137.67595353 83.79544874 138.35601196 80.60525538 138.27734375 74.5390625 C137.86623556 70.77539598 136.5171364 68.78209813 134 66 C127.39084204 60.79704586 121.48819638 60.8355435 113.421875 60.796875 C112.49586487 60.79117493 111.56985474 60.78547485 110.61578369 60.77960205 C108.65906916 60.77017438 106.7023389 60.76362696 104.74560547 60.75976562 C101.77412732 60.75007865 98.80334675 60.71904158 95.83203125 60.6875 C93.92448324 60.68096716 92.01693032 60.6757178 90.109375 60.671875 C89.23093933 60.6595282 88.35250366 60.6471814 87.44744873 60.63446045 C80.36953604 60.65962591 72.88166935 61.36449715 68 67 Z M239 67.0625 C235.5728418 72.0961386 235.3423134 75.97892552 236 82 C238.34792658 86.8764629 241.28760854 89.40337614 246 92 C250.77313929 93.35198113 255.65692772 93.17953366 260.578125 93.203125 C261.50413513 93.20882507 262.43014526 93.21452515 263.38421631 93.22039795 C265.34093084 93.22982562 267.2976611 93.23637304 269.25439453 93.24023438 C272.22587268 93.24992135 275.19665325 93.28095842 278.16796875 93.3125 C280.07551676 93.31903284 281.98306968 93.3242822 283.890625 93.328125 C284.76906067 93.3404718 285.64749634 93.3528186 286.55255127 93.36553955 C292.77741065 93.34340711 299.7318495 92.84311087 304.628479 88.58331299 C308.29891027 84.34608912 309.36953835 80.69765124 309.27734375 75.125 C308.60660676 69.98583209 306.00220948 66.81029702 302.0625 63.625 C296.36497877 60.60182547 290.73146355 60.82712203 284.421875 60.796875 C283.49586487 60.79117493 282.56985474 60.78547485 281.61578369 60.77960205 C279.65906916 60.77017438 277.7023389 60.76362696 275.74560547 60.75976562 C272.77412732 60.75007865 269.80334675 60.71904158 266.83203125 60.6875 C264.92448324 60.68096716 263.01693032 60.6757178 261.109375 60.671875 C260.23093933 60.6595282 259.35250366 60.6471814 258.44744873 60.63446045 C251.33552396 60.65974684 243.85915703 61.35697474 239 67.0625 Z "  transform="translate(69,307)"/>
</svg>
